<svg xmlns="http://www.w3.org/2000/svg" version="1.1" xmlns:xlink="http://www.w3.org/1999/xlink" xmlns:svgjs="http://svgjs.dev/svgjs" width="1500" height="1500" viewBox="0 0 1500 1500"><rect width="1500" height="1500" fill="#8c1010"></rect><g transform="matrix(0.6666666666666666,0,0,0.6666666666666666,249.39393939393938,438.5856950067477)"><svg viewBox="0 0 396 247" data-background-color="#8c1010" preserveAspectRatio="xMidYMid meet" height="935" width="1500" xmlns="http://www.w3.org/2000/svg" xmlns:xlink="http://www.w3.org/1999/xlink"><g id="tight-bounds" transform="matrix(1,0,0,1,0.2400000000000091,-0.09999999999999432)"><svg viewBox="0 0 395.52 247.2" height="247.2" width="395.52"><g><svg></svg></g><g><svg viewBox="0 0 395.52 247.2" height="247.2" width="395.52"><g transform="matrix(1,0,0,1,130.73053889636606,47.215199999999996)"><svg viewBox="0 0 134.05892220726784 152.7696" height="152.7696" width="134.05892220726784"><g><svg viewBox="0 0 134.05892220726784 152.7696" height="152.7696" width="134.05892220726784"><g><svg viewBox="0 0 134.05892220726784 152.7696" height="152.7696" width="134.05892220726784"><g><svg viewBox="0 0 134.05892220726784 152.7696" height="152.7696" width="134.05892220726784"><g id="textblocktransform"><svg viewBox="0 0 134.05892220726784 152.7696" height="152.7696" width="134.05892220726784" id="textblock"><g><svg viewBox="0 0 134.05892220726784 152.7696" height="152.7696" width="134.05892220726784"><g transform="matrix(1,0,0,1,0,0)"><svg width="134.05892220726784" viewBox="0.85 -37.15 32.6 37.15" height="152.7696" data-palette-color="#e8c2d3"><path d="M14.5-2.95L14.5-34.5 5.9-34.2 4.15-23.75 0.85-23.75 1.7-37.15 32.85-37.15 33.45-23.75 30.3-23.75 28.65-34.2 20-34.5 20-2.95 27.1-2.45 27.1 0 8 0 8-2.45 14.5-2.95Z" opacity="1" transform="matrix(1,0,0,1,0,0)" fill="#e8c2d3" class="wordmark-text-0" data-fill-palette-color="primary" id="text-0"></path></svg></g></svg></g></svg></g></svg></g></svg></g></svg></g></svg></g><path d="M313.032 41.215L313.032 0 65.832 0 65.832 247.2 313.032 247.2 313.032 205.985 299.255 205.985 299.255 233.423 79.609 233.423 79.609 13.777 299.255 13.777 299.255 41.215Z" fill="#e8c2d3" stroke="transparent" data-fill-palette-color="tertiary"></path></svg></g><defs></defs></svg><rect width="395.52" height="247.2" fill="none" stroke="none" visibility="hidden"></rect></g></svg></g></svg>